<svg id="Layer_1" data-name="Layer 1" xmlns="http://www.w3.org/2000/svg" viewBox="0 0 849.94 231.19"><defs><style>.cls-1,.cls-2{fill:#808284;}.cls-2,.cls-3{fill-rule:evenodd;}.cls-3{fill:#00788a;}</style></defs><title>sde-logo</title><path class="cls-1" d="M295.35,156.92H278.77l-12.58-19.71h-0.14v19.71H252.73V105.67h19.92c10.13,0,17.81,4.83,17.81,15.77,0,7.07-3.94,13.19-11.21,14.48Zm-29.29-28.28h1.29c4.35,0,9.24-.82,9.24-6.39s-4.89-6.39-9.24-6.39h-1.29v12.78Z"/><polygon class="cls-1" points="336.27 125.45 336.27 105.67 349.59 105.67 349.59 156.92 336.27 156.92 336.27 135.91 317.03 135.91 317.03 156.92 303.71 156.92 303.71 105.67 317.03 105.67 317.03 125.45 336.27 125.45"/><polygon class="cls-1" points="384.53 136.8 396.96 105.67 411.44 105.67 389.56 156.92 379.23 156.92 357.68 105.67 372.16 105.67 384.53 136.8"/><polygon class="cls-1" points="432.85 116.95 432.85 125.52 447.87 125.52 447.87 136.8 432.85 136.8 432.85 145.63 448.69 145.63 448.69 156.92 419.53 156.92 419.53 105.67 448.69 105.67 448.69 116.95 432.85 116.95"/><path class="cls-1" d="M504.29,156.92H487.7l-12.57-19.71H475v19.71H461.67V105.67h19.92c10.13,0,17.81,4.83,17.81,15.77,0,7.07-3.94,13.19-11.21,14.48ZM475,128.64h1.29c4.35,0,9.24-.82,9.24-6.39s-4.9-6.39-9.24-6.39H475v12.78Z"/><polygon class="cls-1" points="532.78 136.8 545.22 105.67 559.7 105.67 537.81 156.92 527.48 156.92 505.94 105.67 520.41 105.67 532.78 136.8"/><path class="cls-1" d="M595.93,118.85a14,14,0,0,0-8.84-3.4c-2.45,0-5.71,1.43-5.71,4.28s3.6,4.15,5.91,4.89l3.4,1c7.14,2.11,12.64,5.71,12.64,14,0,5.1-1.22,10.33-5.3,13.8s-9.38,4.83-14.55,4.83a31.63,31.63,0,0,1-18-5.85l5.71-10.74c3.33,2.92,7.27,5.3,11.83,5.3,3.13,0,6.46-1.56,6.46-5.17s-5.23-5-8.09-5.85c-8.36-2.38-13.87-4.55-13.87-14.48,0-10.4,7.41-17.2,17.67-17.2a35,35,0,0,1,16,4.21Z"/><path class="cls-1" d="M642.56,118.85a14,14,0,0,0-8.84-3.4c-2.45,0-5.71,1.43-5.71,4.28s3.6,4.15,5.91,4.89l3.4,1c7.14,2.11,12.64,5.71,12.64,14,0,5.1-1.22,10.33-5.3,13.8s-9.38,4.83-14.54,4.83a31.62,31.62,0,0,1-18-5.85l5.71-10.74c3.33,2.92,7.27,5.3,11.83,5.3,3.13,0,6.46-1.56,6.46-5.17s-5.23-5-8.09-5.85c-8.36-2.38-13.87-4.55-13.87-14.48,0-10.4,7.41-17.2,17.67-17.2a35,35,0,0,1,16,4.21Z"/><polygon class="cls-1" points="690.61 105.67 707.13 105.67 686.74 129.93 708.96 156.92 691.7 156.92 674.5 134.69 674.37 134.69 674.37 156.92 661.04 156.92 661.04 105.67 674.37 105.67 674.37 126.81 674.5 126.81 690.61 105.67"/><path class="cls-1" d="M771.43,130.34c0,16.58-11.89,28.28-28.34,28.28s-28.34-11.69-28.34-28.28c0-15.5,13.59-26.37,28.34-26.37s28.34,10.88,28.34,26.37m-42.82.07c0,8.84,6.53,15.29,14.48,15.29s14.48-6.46,14.48-15.29c0-7.07-6.53-13.53-14.48-13.53s-14.48,6.46-14.48,13.53"/><polygon class="cls-1" points="795.69 145.63 811.67 145.63 811.67 156.92 782.37 156.92 782.37 105.67 795.69 105.67 795.69 145.63"/><polygon class="cls-1" points="834.1 116.95 834.1 125.52 849.12 125.52 849.12 136.8 834.1 136.8 834.1 145.63 849.94 145.63 849.94 156.92 820.77 156.92 820.77 105.67 849.94 105.67 849.94 116.95 834.1 116.95"/><path class="cls-1" d="M226.26,40.56c-2-3.53-4.48-5.56-8.82-5.56-4.54,0-8.48,3.26-8.48,7.94,0,4.41,4.54,6.44,8,8l3.39,1.49c6.65,2.92,12.28,6.24,12.28,14.38a15.8,15.8,0,0,1-16.08,15.8c-8.21,0-14.31-5.29-15.94-13.23l5.56-1.56c0.75,5.22,4.75,9.5,10.24,9.5s10.51-4.21,10.51-10c0-6-4.68-8-9.43-10.18l-3.12-1.36c-6-2.72-11.12-5.77-11.12-13.09,0-7.94,6.71-13,14.31-13a14.68,14.68,0,0,1,13.23,7.94Z"/><polygon class="cls-1" points="243.82 30.58 250.4 30.58 263.43 53.38 276.45 30.58 283.03 30.58 266.28 59.75 266.28 81.73 260.58 81.73 260.58 59.75 243.82 30.58"/><path class="cls-1" d="M296.12,30.58h9.63c7.66,0,13.91,1,19.94,6.17,5.83,5,8.48,11.87,8.48,19.47a24.67,24.67,0,0,1-8.34,19.06c-6.1,5.43-12.21,6.45-20.21,6.45h-9.5V30.58ZM306,76.44c6.24,0,11.46-.88,16.14-5.29a20.26,20.26,0,0,0,6.38-15,20.19,20.19,0,0,0-6.65-15.33c-4.68-4.14-9.83-5-15.87-5h-4.14V76.44H306Z"/><path class="cls-1" d="M349.57,30.58h9.63c7.66,0,13.91,1,19.94,6.17,5.83,5,8.48,11.87,8.48,19.47a24.67,24.67,0,0,1-8.34,19.06c-6.1,5.43-12.21,6.45-20.21,6.45h-9.5V30.58Zm9.84,45.86c6.24,0,11.46-.88,16.14-5.29a20.26,20.26,0,0,0,6.38-15,20.19,20.19,0,0,0-6.65-15.33c-4.68-4.14-9.83-5-15.87-5h-4.14V76.44h4.14Z"/><path class="cls-1" d="M410.69,67.21l-6.17,14.52h-6.24l23.6-53.59,23,53.59h-6.31l-6-14.52H410.69Zm11.06-25.78L413,61.92h17.3Z"/><polygon class="cls-1" points="458.24 28.41 498.12 70.2 498.12 30.58 503.82 30.58 503.82 84.04 463.94 42.32 463.94 81.73 458.24 81.73 458.24 28.41"/><path class="cls-1" d="M545.13,40.56c-2-3.53-4.48-5.56-8.82-5.56-4.54,0-8.48,3.26-8.48,7.94,0,4.41,4.54,6.44,8,8l3.39,1.49c6.65,2.92,12.28,6.24,12.28,14.38a15.79,15.79,0,0,1-16.08,15.8c-8.21,0-14.31-5.29-15.94-13.23l5.56-1.56c0.75,5.22,4.75,9.5,10.24,9.5s10.51-4.21,10.51-10c0-6-4.68-8-9.43-10.18l-3.12-1.36c-6-2.72-11.12-5.77-11.12-13.09,0-7.94,6.71-13,14.31-13a14.68,14.68,0,0,1,13.23,7.94Z"/><polygon class="cls-1" points="594.78 30.58 602.45 30.58 578.44 54.39 603.26 81.73 595.39 81.73 574.43 58.26 573.01 59.69 573.01 81.73 567.31 81.73 567.31 30.58 573.01 30.58 573.01 52.49 594.78 30.58"/><path class="cls-2" d="M229.28,105.74l-22.07,0a5.28,5.28,0,0,0-5.28,5.26v0.66a5.28,5.28,0,0,0,5.26,5.28l22.19,0"/><path class="cls-2" d="M229.05,116.93h6.64a5.28,5.28,0,0,0,5.28-5.26V111a5.28,5.28,0,0,0-5.26-5.28l-6.78,0"/><path class="cls-2" d="M229.15,125.61l-22.07,0a5.28,5.28,0,0,0-5.28,5.26v0.66a5.28,5.28,0,0,0,5.26,5.28l22.19,0"/><path class="cls-2" d="M228.92,136.79h6.64a5.28,5.28,0,0,0,5.29-5.26v-0.66a5.28,5.28,0,0,0-5.26-5.28l-6.77,0"/><path class="cls-2" d="M229.15,145.41l-22.07,0a5.28,5.28,0,0,0-5.28,5.26v0.66a5.28,5.28,0,0,0,5.26,5.28l22.19,0"/><path class="cls-2" d="M228.92,156.6h6.64a5.28,5.28,0,0,0,5.29-5.26v-0.66a5.28,5.28,0,0,0-5.26-5.28l-6.77,0"/><path class="cls-3" d="M107.93,231.19c-3.76-2.14-9.16-6-14.08-9.53a167.37,167.37,0,0,1-15-12.48,182.53,182.53,0,0,1-28.37-32.93c0.11-.66.78-1.27,1-1.91-1.77-1.29-2.6-3.5-4.43-4.68-1.08-4.15-5.28-8.65-5.56-12.34-3.47-2.83-3.67-6.07-4.28-8.8-0.64-.77-2-1.59-0.82-2.21,2.12,1.7,2.43,4.86,5.92,5.95,1.19-1.27-.56-2.81-0.25-4.15-4.73-11-8.6-22-10.66-32.78,1.2-.66,2.32-0.39,3.47-0.69,0.93,0.46-.48.72,0.31,1.17,0.8-.57,1.45.29,2.22,0.05,1.54-2.41-2.46-4.67-.2-7.15A31.56,31.56,0,0,1,34.6,98.23c-0.28-3.17.72-49-12.09-62.45-6.59-6.93-12.34-6.64-16.41-5.56C2.63,31.13.44,33.64,0,35.47,8.93,45.58,8,56.68,8.76,66.94c0.7,9.92.79,19.87,2.12,29.15A181.39,181.39,0,0,0,30.5,155.63c0.83,0,.43-1.28-0.43-1.89-2.34-6.69-7.85-13.64-7.13-20,1.94,1.53,2.53,3.71,3.34,5.58,2.44,5.6,5.28,11.59,8.36,17.44,1,0.22.29-1.67-.47-1.61-0.12-.59.37-1.11,0.15-1.7-4.37-8.08-9.12-16.83-10.52-25.05l-1.13-1c-1.63-6.38-3.36-12.77-4.58-19.1a1.85,1.85,0,0,0-1.13-1c0.75-3.59-1-7.41-.87-11.07a21.53,21.53,0,0,1,2.26,6.48c0.7,3,1,5.89,1.85,8.87s1.91,5.94,2.67,8.94c0.48,2,.31,4,0.89,5.93,1.83,6.12,5.47,11.89,7.3,18.06a0.88,0.88,0,0,1-.1,1.13c1.94,2.21,12.85,22.8,12.46,23.66-1,.8-0.52-1.22-1.58-0.43,6,9.31,21.57,31,41.08,47.09,5.28,4.6,16.06,11.06,25,15.18"/><path class="cls-3" d="M50.27,72.28a7.48,7.48,0,0,0,2.88,10.16L54,82.9A7.48,7.48,0,0,0,64.13,80l38.23-68.46A7.48,7.48,0,0,0,99.48,1.4l-0.82-.45A7.47,7.47,0,0,0,88.5,3.83Z"/><path class="cls-3" d="M74.7,86.29a7.48,7.48,0,0,0,2.88,10.16l0.82,0.46A7.48,7.48,0,0,0,88.56,94l38.23-68.46a7.48,7.48,0,0,0-2.88-10.16L123.09,15a7.47,7.47,0,0,0-10.16,2.88Z"/><path class="cls-3" d="M99.13,99.76A7.48,7.48,0,0,0,102,109.93l0.82,0.46A7.48,7.48,0,0,0,113,107.5L151.21,39a7.48,7.48,0,0,0-2.88-10.16l-0.82-.45a7.47,7.47,0,0,0-10.16,2.88Z"/><path class="cls-3" d="M99.93,154.6a7.48,7.48,0,0,0,2.88,10.16l0.82,0.45a7.48,7.48,0,0,0,10.16-2.88L152,93.88a7.48,7.48,0,0,0-2.88-10.16l-0.82-.45a7.48,7.48,0,0,0-10.16,2.88Z"/><path class="cls-3" d="M117.47,154.77L86.6,137.53a7.48,7.48,0,0,0-10.16,2.88l-0.45.82a7.48,7.48,0,0,0,2.88,10.16l24.76,13.83"/></svg>